<svg width="144" height="50" viewBox="0 0 144 50" fill="none" xmlns="http://www.w3.org/2000/svg">
<g id="Logo">
<g id="Logo_2">
<path d="M32 14L32 36L0 50L2.18557e-06 0L32 14Z" fill="white"/>
<path d="M24 4.5V9.59375L16 6.0625V1.39876e-06L24 4.5Z" fill="white"/>
<path d="M32 9V13.125L25 10.0352V5.0625L32 9Z" fill="white"/>
</g>
<g id="Text">
<path d="M48 20.9708V16.2014H69.7617V20.9708H62.219V33.6821H55.5469V20.9708H48Z" fill="white"/>
<path d="M79.2537 33.6864L70.4199 16.2014H77.9881L83.8617 28.3989L89.3828 16.2014H96.3139L88.113 33.6864H79.2537Z" fill="white"/>
<path d="M109.31 15.8702C120.59 15.8702 122.047 21.2512 122.047 24.5426V25.2476C122.047 28.5136 120.611 34.0134 109.31 34.0134H108.252C96.9255 34.0134 95.49 28.5136 95.49 25.2476V24.5426C95.49 21.2512 96.9255 15.8702 108.252 15.8702H109.31ZM115.137 24.704C115.137 22.848 113.939 20.5674 108.77 20.5674C103.602 20.5674 102.404 22.848 102.404 24.704V24.9843C102.404 26.819 103.602 29.2865 108.77 29.2865C113.939 29.2865 115.137 26.9124 115.137 25.031V24.704Z" fill="white"/>
<path d="M143.15 16.2014V20.4782H130.392V22.6654H142.895V26.9209H130.392V29.3162H143.341V33.6864H123.813V16.2014H143.154H143.15ZM133.14 15.1439H127.36V11.5H133.14V15.1439ZM140.024 15.1439H134.265V11.5H140.024V15.1439Z" fill="white"/>
</g>
</g>
</svg>
