<svg width="54" height="54" viewBox="0 0 54 54" fill="none" xmlns="http://www.w3.org/2000/svg">
<path d="M41.6667 10.5L12.3334 10.5C10.3112 10.5 8.66669 12.1445 8.66669 14.1667L8.66669 39.8333C8.66669 41.8555 10.3112 43.5 12.3334 43.5H41.6667C43.6889 43.5 45.3334 41.8555 45.3334 39.8333V14.1667C45.3334 12.1445 43.6889 10.5 41.6667 10.5ZM41.6685 21.5C41.6667 21.5 41.6667 21.5 41.6685 21.5H40.816L35.9265 14.1667H41.6667L41.6685 21.5ZM22.4827 21.5L17.5932 14.1667H22.3525L27.242 21.5H22.4827ZM31.6494 21.5L26.7599 14.1667L31.5192 14.1667L36.4087 21.5H31.6494ZM12.3334 14.1667H13.1859L18.0754 21.5H12.3334V14.1667ZM12.3334 39.8333L12.3334 25.1667H41.6667L41.6704 39.8333H12.3334Z" fill="#BABABA"/>
<path d="M23.3334 38L33.4167 32.5L23.3334 27V38Z" fill="#BABABA"/>
</svg>
