<svg width="44" height="44" viewBox="0 0 44 44" fill="none" xmlns="http://www.w3.org/2000/svg">
<g id="BoxIcons">
<path id="Vector" d="M22 8.42372C20.0024 6.58691 17.3877 5.56747 14.674 5.56738C13.2377 5.56888 11.8158 5.85441 10.4902 6.40754C9.16465 6.96067 7.96156 7.77049 6.95017 8.79038C2.63634 13.1225 2.63817 19.8985 6.95384 24.2124L20.3958 37.6544C20.7075 38.2025 21.3088 38.5564 22 38.5564C22.2838 38.5536 22.563 38.4843 22.8152 38.3541C23.0673 38.2239 23.2855 38.0364 23.452 37.8065L37.0462 24.2124C41.3618 19.8967 41.3618 13.1225 37.0425 8.78305C36.0316 7.76503 34.8295 6.95686 33.5052 6.405C32.181 5.85314 30.7607 5.56848 29.326 5.56738C26.6124 5.56783 23.9978 6.58722 22 8.42372ZM34.4502 11.3754C37.3157 14.2555 37.3175 18.7545 34.4538 21.6201L22 34.0739L9.54617 21.6201C6.6825 18.7545 6.68434 14.2555 9.5425 11.3827C10.9358 9.99672 12.7582 9.23405 14.674 9.23405C16.5898 9.23405 18.4048 9.99672 19.7872 11.379L20.7038 12.2957C20.8739 12.4661 21.076 12.6013 21.2984 12.6935C21.5208 12.7858 21.7592 12.8333 22 12.8333C22.2408 12.8333 22.4792 12.7858 22.7016 12.6935C22.924 12.6013 23.1261 12.4661 23.2962 12.2957L24.2128 11.379C26.9848 8.61255 31.6818 8.61988 34.4502 11.3754Z" fill="#BABABA"/>
</g>
</svg>
