<svg width="54" height="54" viewBox="0 0 54 54" fill="none" xmlns="http://www.w3.org/2000/svg">
<path d="M14.1667 45.3332H39.8333C40.8058 45.3332 41.7384 44.9469 42.4261 44.2592C43.1137 43.5716 43.5 42.639 43.5 41.6665V25.1665C43.5014 24.9252 43.4551 24.686 43.3639 24.4627C43.2727 24.2393 43.1382 24.0361 42.9683 23.8648L28.3017 9.19816C27.9582 8.8567 27.4935 8.66504 27.0092 8.66504C26.5248 8.66504 26.0602 8.8567 25.7167 9.19816L11.05 23.8648C10.8768 24.0346 10.739 24.2371 10.6445 24.4605C10.5501 24.684 10.501 24.9239 10.5 25.1665V41.6665C10.5 42.639 10.8863 43.5716 11.5739 44.2592C12.2616 44.9469 13.1942 45.3332 14.1667 45.3332ZM23.3333 41.6665V32.4998H30.6667L30.6667 41.6665H23.3333ZM14.1667 25.9182L27 13.0848L39.8333 25.9182V41.6665H34.3333V32.4998C34.3333 31.5274 33.947 30.5947 33.2594 29.9071C32.5718 29.2195 31.6391 28.8332 30.6667 28.8332H23.3333C22.3609 28.8332 21.4282 29.2195 20.7406 29.9071C20.053 30.5947 19.6667 31.5274 19.6667 32.4998V41.6665H14.1667L14.1667 25.9182Z" fill="#BABABA"/>
</svg>
