<svg width="54" height="54" viewBox="0 0 54 54" fill="none" xmlns="http://www.w3.org/2000/svg">
<path d="M27 8.66699C25.187 8.66699 23.4147 9.20461 21.9073 10.2119C20.3998 11.2191 19.2249 12.6507 18.5311 14.3257C17.8373 16.0007 17.6558 17.8438 18.0095 19.622C18.3632 21.4001 19.2362 23.0335 20.5182 24.3155C21.8002 25.5975 23.4335 26.4705 25.2117 26.8242C26.9898 27.1779 28.8329 26.9964 30.5079 26.3026C32.1829 25.6088 33.6146 24.4338 34.6218 22.9264C35.6291 21.4189 36.1667 19.6467 36.1667 17.8337C36.1667 15.4025 35.2009 13.0709 33.4818 11.3518C31.7627 9.63276 29.4312 8.66699 27 8.66699ZM27 23.3337C25.9122 23.3337 24.8488 23.0111 23.9444 22.4067C23.0399 21.8024 22.3349 20.9434 21.9187 19.9384C21.5024 18.9334 21.3935 17.8276 21.6057 16.7607C21.8179 15.6938 22.3417 14.7138 23.1109 13.9446C23.8801 13.1754 24.8601 12.6516 25.927 12.4393C26.9939 12.2271 28.0998 12.336 29.1048 12.7523C30.1098 13.1686 30.9687 13.8736 31.5731 14.778C32.1774 15.6825 32.5 16.7459 32.5 17.8337C32.5 19.2923 31.9205 20.6913 30.8891 21.7227C29.8576 22.7542 28.4587 23.3337 27 23.3337ZM43.5 43.5003V41.667C43.5 38.2634 42.1479 34.9992 39.7412 32.5925C37.3345 30.1857 34.0703 28.8337 30.6667 28.8337H23.3333C19.9297 28.8337 16.6655 30.1857 14.2588 32.5925C11.8521 34.9992 10.5 38.2634 10.5 41.667V43.5003H14.1667V41.667C14.1667 39.2358 15.1324 36.9043 16.8515 35.1852C18.5706 33.4661 20.9022 32.5003 23.3333 32.5003H30.6667C33.0978 32.5003 35.4294 33.4661 37.1485 35.1852C38.8676 36.9043 39.8333 39.2358 39.8333 41.667V43.5003H43.5Z" fill="#BABABA"/>
</svg>
