<svg width="44" height="44" viewBox="0 0 44 44" fill="none" xmlns="http://www.w3.org/2000/svg">
<g id="BoxIcons">
<path id="Vector" d="M19.5186 34.1839C22.7727 34.1833 25.9331 33.0939 28.4964 31.0893L36.5558 39.1486L39.1481 36.5563L31.0888 28.4969C33.0944 25.9333 34.1845 22.7722 34.1853 19.5173C34.1853 11.4304 27.6054 4.85059 19.5186 4.85059C11.4318 4.85059 4.85193 11.4304 4.85193 19.5173C4.85193 27.6041 11.4318 34.1839 19.5186 34.1839ZM19.5186 8.51725C25.5851 8.51725 30.5186 13.4508 30.5186 19.5173C30.5186 25.5838 25.5851 30.5173 19.5186 30.5173C13.4521 30.5173 8.5186 25.5838 8.5186 19.5173C8.5186 13.4508 13.4521 8.51725 19.5186 8.51725Z" fill="#BABABA"/>
</g>
</svg>
