<svg width="54" height="54" viewBox="0 0 54 54" fill="none" xmlns="http://www.w3.org/2000/svg">
<path d="M41.6667 10.5L12.3334 10.5C10.3112 10.5 8.66669 12.1445 8.66669 14.1667L8.66669 34.3333C8.66669 36.3555 10.3112 38 12.3334 38H19.6667L16.3667 42.4L19.3 44.6L24.25 38H29.75L34.7 44.6L37.6334 42.4L34.3334 38H41.6667C43.6889 38 45.3334 36.3555 45.3334 34.3333V14.1667C45.3334 12.1445 43.6889 10.5 41.6667 10.5ZM12.3334 34.3333L12.3334 14.1667L41.6667 14.1667L41.6685 34.3333H12.3334Z" fill="#BABABA"/>
<path d="M16 27H23.3333V30.6667H16V27Z" fill="#BABABA"/>
</svg>
